<svg xmlns="http://www.w3.org/2000/svg" version="1.1" xmlns:xlink="http://www.w3.org/1999/xlink" xmlns:svgjs="http://svgjs.dev/svgjs" width="1000" height="623" viewBox="0 0 1000 623"><g transform="matrix(1,0,0,1,-0.6060606060606233,0.2522267206477409)"><svg viewBox="0 0 396 247" data-background-color="#ffffff" preserveAspectRatio="xMidYMid meet" height="623" width="1000" xmlns="http://www.w3.org/2000/svg" xmlns:xlink="http://www.w3.org/1999/xlink"><defs></defs><g id="tight-bounds" transform="matrix(1,0,0,1,0.2400000000000091,-0.09999999999999432)"><svg viewBox="0 0 395.52 247.2" height="247.2" width="395.52"><g><svg></svg></g><g><svg viewBox="0 0 395.52 247.2" height="247.2" width="395.52"><g transform="matrix(2.7244292015645932, 0, 0, 2.7244292015645932, 85.30808929664667, 1.0000000000000142)"><svg xmlns="http://www.w3.org/2000/svg" xmlns:xlink="http://www.w3.org/1999/xlink" version="1.1" x="0" y="0" viewBox="8.724258422851562 4.999500274658203 82.5508041381836 90.00050354003906" enable-background="new 0 0 100 100" xml:space="preserve" height="90.00050354003906" width="82.5508041381836" class="icon-none" data-fill-palette-color="accent" id="none"><path fill="#ff3368" d="M91.244 32.965c-0.005-0.022-0.014-0.043-0.021-0.064-0.018-0.058-0.04-0.112-0.067-0.165-0.011-0.021-0.021-0.04-0.033-0.061-0.04-0.063-0.084-0.124-0.137-0.178-0.003-0.004-0.005-0.007-0.008-0.01-0.057-0.057-0.12-0.104-0.188-0.145-0.008-0.006-0.015-0.013-0.022-0.018L43.674 5.136c-0.314-0.182-0.702-0.182-1.018 0L9.362 24.369c-0.008 0.005-0.015 0.013-0.023 0.018-0.068 0.042-0.132 0.089-0.188 0.145-0.002 0.003-0.005 0.007-0.007 0.01-0.053 0.054-0.098 0.115-0.137 0.18-0.012 0.02-0.022 0.039-0.033 0.06-0.027 0.053-0.05 0.107-0.068 0.165-0.007 0.022-0.014 0.042-0.02 0.064-0.019 0.078-0.032 0.158-0.032 0.241v11.216c0 0.362 0.193 0.697 0.506 0.88l4.008 2.314-2.25 1.3-0.014 0.008c-0.088 0.051-0.164 0.117-0.231 0.19-0.006 0.007-0.016 0.011-0.021 0.018-1.667 1.924-3.811 6.725 0 11.124 0.007 0.008 0.017 0.013 0.024 0.02 0.065 0.071 0.139 0.137 0.227 0.188 0 0 0.001 0.001 0.001 0.002l2.412 1.393-3.034 1.751c-0.306 0.176-0.494 0.503-0.494 0.855s0.188 0.679 0.494 0.855l3.262 1.883-3.261 1.883c-0.306 0.177-0.494 0.502-0.494 0.855 0 0.353 0.188 0.679 0.493 0.855l3.264 1.884-3.263 1.884c-0.306 0.177-0.494 0.502-0.494 0.855 0 0.353 0.188 0.679 0.494 0.855l45.981 26.548C56.616 94.955 56.786 95 56.956 95c0.171 0 0.341-0.045 0.494-0.133l32.514-18.771c0.306-0.176 0.494-0.502 0.494-0.855 0-0.353-0.188-0.679-0.494-0.855l-3.263-1.884 3.263-1.884c0.306-0.177 0.494-0.502 0.494-0.855 0-0.353-0.188-0.679-0.494-0.855l-3.262-1.883 3.262-1.883c0.306-0.176 0.494-0.502 0.494-0.854 0-0.354-0.188-0.68-0.494-0.855l-2.413-1.393 3.035-1.753c0.306-0.177 0.494-0.503 0.494-0.855s-0.188-0.679-0.494-0.855L89.938 58.2l0.646-0.372c0.307-0.177 0.494-0.503 0.495-0.855 0-0.354-0.188-0.68-0.494-0.856l-0.646-0.372 0.646-0.373c0.306-0.177 0.494-0.503 0.494-0.855s-0.188-0.679-0.494-0.855l-0.647-0.374 0.646-0.373c0.307-0.177 0.495-0.503 0.495-0.856 0-0.353-0.188-0.679-0.494-0.854l-0.648-0.374 0.648-0.375c0.306-0.177 0.494-0.502 0.494-0.855 0-0.353-0.188-0.679-0.494-0.855l-2.879-1.662 3.061-1.767c0.01-0.006 0.018-0.014 0.027-0.02 0.031-0.02 0.06-0.041 0.087-0.063 0.025-0.02 0.051-0.038 0.073-0.061 0.024-0.021 0.046-0.047 0.067-0.071 0.022-0.025 0.044-0.05 0.063-0.076 0.019-0.027 0.034-0.056 0.051-0.084 0.016-0.028 0.032-0.056 0.046-0.084 0.014-0.031 0.024-0.062 0.035-0.096 0.01-0.03 0.021-0.061 0.028-0.092 0.008-0.03 0.012-0.062 0.016-0.094 0.006-0.036 0.011-0.07 0.012-0.107 0-0.012 0.003-0.022 0.003-0.033V33.206C91.276 33.123 91.264 33.042 91.244 32.965zM88.223 33.206l-13.694 7.909L52.531 28.608c1.333 0.193 2.989 0.377 4.49 0.377 0 0 0 0 0.001 0 2.231 0 3.562-0.409 4.066-1.251 0.33-0.551 0.287-1.225-0.128-2.001-0.712-1.34-1.747-2.042-3.073-2.104l6.874-3.969L88.223 33.206zM33.489 37.712l16.413-9.473 23.645 13.443-16.591 9.581L33.489 37.712zM55.938 53.027v8.864L32.725 48.49l0.04-8.844L55.938 53.027zM49.723 26.366c-2.78-3.772-6.804-10.133-5.757-12.262 0.083-0.168 0.336-0.681 1.545-0.681l0.16 0.003c1.429 0.053 2.479 0.49 3.212 1.338 1.873 2.168 1.374 6.724 0.933 10.743C49.784 25.796 49.752 26.081 49.723 26.366zM57.975 53.027l16.596-9.585-0.041 8.894-16.555 9.556V53.027zM51.403 27.438c0.079-0.05 0.159-0.1 0.239-0.151 0.41-0.259 0.829-0.522 1.258-0.783 0.41-0.26 0.851-0.501 1.265-0.726 1.49-0.807 2.612-1.182 3.533-1.182 1.058 0 1.819 0.507 2.399 1.597 0.242 0.453 0.293 0.802 0.152 1.037-0.141 0.233-0.735 0.775-3.228 0.775h-0.001C55.069 28.006 52.78 27.674 51.403 27.438zM43.166 7.193L63.78 19.095l-10.079 5.822L53.7 24.918c-0.431 0.232-0.886 0.482-1.315 0.754-0.002 0.001-0.004 0.002-0.005 0.003l-1.705 0.982c0.037-0.343 0.075-0.69 0.113-1.042 0.463-4.219 0.987-9-1.165-11.49-0.906-1.05-2.224-1.614-3.916-1.676-1.327-0.056-2.196 0.365-2.619 1.224-1.336 2.715 3.011 9.346 5.369 12.619L29.128 15.303 43.166 7.193zM28.146 15.87l20.771 11.81-16.406 9.467L11.942 25.269l-0.034-0.019L28.146 15.87zM11.945 36.495l-1.056-0.614v-8.866l20.897 12.066-0.039 8.846L11.945 36.495zM12.239 50.884c-2.689-3.228-1.221-6.42-0.366-7.761l26.422 15.256 17.836 10.298c-0.877 1.39-1.638 3.445-1.367 5.693 0.001 0.062 0.008 0.122 0.021 0.184 0.049 0.336 0.121 0.677 0.221 1.021L12.239 50.884zM87.494 75.24L56.956 92.871 13 67.493l-0.05-0.028 2.77-1.6 40.743 23.523c0.153 0.088 0.323 0.133 0.493 0.133 0.171 0 0.341-0.045 0.494-0.133l27.275-15.747L87.494 75.24zM87.494 69.762L56.956 87.393 13 62.016l-0.05-0.029 2.769-1.599 40.744 23.523c0.153 0.088 0.323 0.133 0.493 0.133 0.171-0.001 0.341-0.045 0.494-0.133l27.277-15.747L87.494 69.762zM56.956 81.915L13 56.537l-0.049-0.027 2.54-1.468 41.593 24.015c0.069 0.039 0.142 0.066 0.215 0.089 0.009 0.002 0.017 0.008 0.026 0.011 0.083 0.021 0.168 0.033 0.252 0.033 0.004 0 0.008-0.001 0.013 0 0.084 0 0.164-0.014 0.241-0.033l0.001-0.001c0.119-0.03 0.23-0.08 0.327-0.149l27.416-15.828 1.919 1.108L56.956 81.915zM56.781 75.041l31.182-18.402 0.15 0.15L56.81 75.219C56.8 75.179 56.79 75.141 56.781 75.041zM57.93 77.275l-0.092-0.141-0.001-0.002 30.128-17.779 0.15 0.149L57.93 77.275zM56.659 73.047l0.03-0.276 31.275-18.4 0.15 0.15L56.659 73.047zM57.977 69.803l0.185-0.309 29.802-17.588 0.152 0.15L57.977 69.803zM88.116 49.598L57.578 67.23l-43.957-25.38-0.047-0.027 1.769-1.021 41.104 23.735c0.013 0.007 0.026 0.01 0.039 0.016 0.054 0.028 0.109 0.051 0.168 0.069 0.021 0.007 0.042 0.015 0.064 0.02 0.076 0.019 0.155 0.031 0.237 0.031 0.083 0 0.162-0.013 0.239-0.031 0.021-0.005 0.041-0.013 0.063-0.02 0.059-0.019 0.114-0.041 0.168-0.069 0.013-0.007 0.026-0.009 0.039-0.016l28.266-16.316L88.116 49.598zM89.24 43.845L75.511 51.77l0.041-8.894L89.24 34.97V43.845z" data-fill-palette-color="accent"></path></svg></g><rect width="348.05760000000004" height="45.94171516549846" fill="#ffffff" y="100.62914241725076" x="23.731199999999973" data-fill-palette-color="quaternary"></rect><g transform="matrix(1,0,0,1,39.55199999999999,107.99640907817316)"><svg viewBox="0 0 316.416 31.207181843653682" height="31.207181843653682" width="316.416"><g><svg viewBox="0 0 316.416 31.207181843653682" height="31.207181843653682" width="316.416"><g><svg viewBox="0 0 316.416 31.207181843653682" height="31.207181843653682" width="316.416"><g><svg viewBox="0 0 316.416 31.207181843653682" height="31.207181843653682" width="316.416"><g><svg viewBox="0 0 316.416 31.207181843653682" height="31.207181843653682" width="316.416"><g><svg viewBox="0 0 316.416 31.207181843653682" height="31.207181843653682" width="316.416"><g transform="matrix(1,0,0,1,0,0)"><svg width="316.416" viewBox="1.3700000047683716 -33.88999938964844 348.5 34.380001068115234" height="31.207181843653682" data-palette-color="#ff3368"><path d="M10.86-32.13Q14.21-32.03 16.36-32.03 18.51-32.03 21.88-32.13 25.24-32.23 27.1-32.23L27.1-32.23Q28.32-32.23 30.47-32.76L30.47-32.76 31.4-25.78Q31.05-25.44 30.22-25.44L30.22-25.44Q29.79-25.44 29.74-25.68L29.74-25.68Q29.05-28.42 28.05-29.22 27.05-30.03 24.27-30.03L24.27-30.03Q19.09-30.03 18.9-29.3L18.9-29.3Q18.46-27.73 18.46-24.41L18.46-24.41 18.46-6.79Q18.46-3.96 18.9-2.25L18.9-2.25Q18.99-1.9 20.26-1.59 21.53-1.27 22.02-1.27L22.02-1.27Q22.22-1.27 22.22-0.54L22.22-0.54Q22.22-0.15 22.12 0.15L22.12 0.15Q17.24-0.1 16.46-0.1L16.46-0.1Q16.21-0.1 10.6 0.15L10.6 0.15Q10.4-0.05 10.4-0.59L10.4-0.59Q10.4-1.27 10.6-1.27L10.6-1.27Q11.23-1.27 12.48-1.56 13.72-1.86 13.87-2.25L13.87-2.25Q14.21-3.56 14.21-6.59L14.21-6.59 14.21-24.27Q14.21-28.52 13.77-29.3L13.77-29.3Q13.38-30.03 8.5-30.03L8.5-30.03Q5.71-30.03 4.71-29.22 3.71-28.42 3.03-25.68L3.03-25.68Q2.98-25.44 2.54-25.44L2.54-25.44Q1.71-25.44 1.37-25.78L1.37-25.78 2.29-32.76Q4.44-32.23 5.66-32.23L5.66-32.23Q7.52-32.23 10.86-32.13ZM47.9-21.39L47.9-21.39Q51.17-21.39 52.59-19.04 54-16.7 54-11.82L54-11.82 54-6.54Q54-3.76 54.39-2.25L54.39-2.25Q54.49-1.9 55.66-1.59 56.83-1.27 57.32-1.27L57.32-1.27Q57.47-1.27 57.52-0.68 57.57-0.1 57.47 0.15L57.47 0.15Q52.59-0.1 52.24-0.1L52.24-0.1Q52.1-0.1 47.12 0.15L47.12 0.15Q46.92-0.05 46.92-0.66 46.92-1.27 47.12-1.27L47.12-1.27Q47.7-1.27 48.75-1.59 49.8-1.9 49.9-2.25L49.9-2.25Q50.24-3.66 50.24-5.66L50.24-5.66 50.24-10.84Q50.24-15.33 49-16.87 47.75-18.41 45.16-18.41L45.16-18.41Q43.7-18.41 42.26-17.26 40.82-16.11 40.82-15.23L40.82-15.23 40.82-6.59Q40.82-3.76 41.21-2.25L41.21-2.25Q41.31-1.9 42.48-1.59 43.65-1.27 44.14-1.27L44.14-1.27Q44.28-1.27 44.33-0.68 44.38-0.1 44.28 0.15L44.28 0.15Q39.4-0.1 39.06-0.1L39.06-0.1Q38.77-0.1 33.74 0.15L33.74 0.15Q33.54-0.05 33.54-0.66 33.54-1.27 33.74-1.27L33.74-1.27Q34.32-1.27 35.47-1.59 36.62-1.9 36.72-2.25L36.72-2.25Q37.06-3.66 37.06-5.62L37.06-5.62 37.06-26.81Q37.06-28.47 36.77-29.93L36.77-29.93Q36.52-30.71 34.27-30.71L34.27-30.71 33.84-30.71Q33.54-30.71 33.54-31.25L33.54-31.25Q33.54-32.03 33.84-32.03L33.84-32.03Q35.3-32.18 36.55-32.42 37.79-32.67 38.5-32.91 39.21-33.15 39.69-33.37 40.18-33.59 40.38-33.74L40.38-33.74 40.62-33.89 40.72-33.89Q40.92-33.89 41.11-33.62 41.31-33.35 41.35-33.11L41.35-33.11Q40.82-31.54 40.82-28.86L40.82-28.86 40.82-18.16Q40.82-17.97 40.92-17.97L40.92-17.97Q40.96-17.97 41.06-18.07L41.06-18.07Q42.14-19.24 44.11-20.31 46.09-21.39 47.9-21.39ZM79.78-16.65L79.78-16.65 79.78-6.88Q79.78-4.79 80.12-3.17L80.12-3.17Q80.22-2.83 80.66-2.64 81.1-2.44 81.59-2.39 82.08-2.34 82.56-2.34L82.56-2.34 83-2.29Q83.15-2.25 83.15-1.76L83.15-1.76Q83.15-1.61 83.03-1.29 82.91-0.98 82.76-0.98L82.76-0.98Q82.03-0.93 81.12-0.78 80.22-0.63 79.44-0.44 78.66-0.24 77.97-0.05 77.29 0.15 76.9 0.29L76.9 0.29 76.46 0.39Q76.07 0.39 76.07-0.39L76.07-0.39 76.07-2.88 75.97-3.13Q72.75 0.34 69.58 0.34L69.58 0.34Q67.77 0.34 66.47-0.56 65.18-1.46 64.57-2.95 63.96-4.44 63.72-5.83 63.47-7.23 63.47-8.74L63.47-8.74 63.47-14.89Q63.47-16.8 62.79-17.53L62.79-17.53Q62.3-18.12 61.59-18.33 60.88-18.55 60.42-18.55 59.96-18.55 59.96-18.65L59.96-18.65Q59.96-19.82 60.25-19.87L60.25-19.87Q65.42-20.65 66.99-21.14L66.99-21.14Q67.04-21.14 67.13-21.17 67.23-21.19 67.23-21.19L67.23-21.19Q67.43-21.19 67.48-20.78 67.52-20.36 67.48-20.17L67.48-20.17Q67.18-17.82 67.18-16.55L67.18-16.55 67.18-9.96Q67.18-6.2 68.31-4.42 69.43-2.64 71.97-2.64L71.97-2.64Q73.43-2.64 74.75-3.78 76.07-4.93 76.07-5.76L76.07-5.76 76.07-14.89Q76.07-16.8 75.39-17.53L75.39-17.53Q74.9-18.12 74.19-18.33 73.48-18.55 73.02-18.55 72.55-18.55 72.55-18.65L72.55-18.65Q72.55-19.82 72.85-19.87L72.85-19.87Q78.02-20.65 79.58-21.14L79.58-21.14Q79.63-21.14 79.73-21.17 79.83-21.19 79.83-21.19L79.83-21.19Q80.02-21.19 80.07-20.78 80.12-20.36 80.07-20.17L80.07-20.17Q79.78-17.82 79.78-16.65ZM88.64-27.22Q87.93-27.93 87.93-28.96 87.93-29.98 88.64-30.69 89.35-31.4 90.37-31.4 91.4-31.4 92.11-30.69 92.81-29.98 92.81-28.96 92.81-27.93 92.11-27.22 91.4-26.51 90.37-26.51 89.35-26.51 88.64-27.22ZM92.62-16.65L92.62-6.59Q92.62-3.76 93.01-2.25L93.01-2.25Q93.11-1.9 94.28-1.59 95.45-1.27 95.94-1.27L95.94-1.27Q96.09-1.27 96.14-0.68 96.18-0.1 96.09 0.15L96.09 0.15Q91.2-0.1 90.86-0.1 90.52-0.1 85.54 0.15L85.54 0.15Q85.34-0.05 85.34-0.66 85.34-1.27 85.54-1.27L85.54-1.27Q86.13-1.27 87.27-1.59 88.42-1.9 88.52-2.25L88.52-2.25Q88.86-3.66 88.86-5.66L88.86-5.66 88.86-14.89Q88.86-16.8 88.18-17.53L88.18-17.53Q87.69-18.12 86.98-18.33 86.27-18.55 85.81-18.55 85.34-18.55 85.34-18.65L85.34-18.65Q85.34-19.82 85.64-19.87L85.64-19.87Q90.81-20.65 92.38-21.14L92.38-21.14 92.47-21.19Q92.57-21.19 92.62-21.19L92.62-21.19Q92.81-21.19 92.86-20.78 92.91-20.36 92.86-20.17L92.86-20.17Q92.62-18.21 92.62-16.65L92.62-16.65ZM107.9-19.48L107.9-19.48Q105.36-19.48 104.02-17.31 102.68-15.14 102.68-13.72L102.68-13.72Q102.68-13.38 102.97-13.38L102.97-13.38 112.49-13.38Q112.73-13.38 112.73-13.87L112.73-13.87Q112.73-15.43 111.42-17.46 110.1-19.48 107.9-19.48ZM108.39-21.29L108.39-21.29Q110.63-21.29 112.34-20.43 114.05-19.58 114.96-18.24 115.86-16.89 116.27-15.5 116.69-14.11 116.69-12.74L116.69-12.74Q116.69-11.77 116.4-11.55 116.1-11.33 115.27-11.33L115.27-11.33 102.97-11.33Q102.58-11.33 102.58-11.08L102.58-11.08Q102.58-8.01 104.43-5.42 106.29-2.83 109.8-2.83L109.8-2.83Q110.83-2.83 111.76-3.03 112.69-3.22 113.34-3.49 114-3.76 114.47-4.03 114.93-4.3 115.27-4.54L115.27-4.54 115.62-4.79Q115.91-4.79 115.91-4.15L115.91-4.15Q115.91-3.76 115.62-3.27L115.62-3.27Q114.64-1.9 112.73-0.81 110.83 0.29 108.58 0.29L108.58 0.29Q104.53 0.29 101.63-2.76 98.72-5.81 98.72-10.21L98.72-10.21Q98.72-15.33 101.48-18.31 104.24-21.29 108.39-21.29ZM133.63-21.39L133.63-21.39Q137.05-21.39 138.42-18.95 139.78-16.5 139.78-11.04L139.78-11.04 139.78-6.59Q139.78-3.76 140.17-2.25L140.17-2.25Q140.27-1.9 141.44-1.59 142.61-1.27 143.1-1.27L143.1-1.27Q143.25-1.27 143.3-0.68 143.35-0.1 143.25 0.15L143.25 0.15Q138.37-0.1 138.02-0.1L138.02-0.1Q137.93-0.1 132.9 0.15L132.9 0.15Q132.7-0.05 132.7-0.66 132.7-1.27 132.9-1.27L132.9-1.27Q133.48-1.27 134.53-1.59 135.58-1.9 135.68-2.25L135.68-2.25Q136.02-3.66 136.02-5.66L136.02-5.66 136.02-10.55Q136.02-15.09 134.85-16.75 133.68-18.41 131.04-18.41L131.04-18.41Q129.48-18.41 128.04-17.26 126.6-16.11 126.6-15.19L126.6-15.19 126.6-6.59Q126.6-3.76 126.99-2.25L126.99-2.25Q127.09-1.9 128.26-1.59 129.43-1.27 129.92-1.27L129.92-1.27Q130.07-1.27 130.11-0.68 130.16-0.1 130.07 0.15L130.07 0.15Q125.18-0.1 124.84-0.1L124.84-0.1Q124.55-0.1 119.52 0.15L119.52 0.15Q119.32-0.05 119.32-0.66 119.32-1.27 119.52-1.27L119.52-1.27Q120.1-1.27 121.25-1.59 122.4-1.9 122.5-2.25L122.5-2.25Q122.84-3.66 122.84-5.66L122.84-5.66 122.84-14.89Q122.84-16.8 122.16-17.53L122.16-17.53Q121.67-18.12 120.96-18.33 120.25-18.55 119.79-18.55 119.32-18.55 119.32-18.65L119.32-18.65Q119.32-19.82 119.62-19.87L119.62-19.87Q124.79-20.65 126.35-21.14L126.35-21.14Q126.4-21.14 126.5-21.17 126.6-21.19 126.6-21.19L126.6-21.19Q126.79-21.19 126.84-20.78 126.89-20.36 126.84-20.17L126.84-20.17Q126.65-18.8 126.65-18.21L126.65-18.21Q126.65-18.02 126.75-18.02L126.75-18.02Q126.79-18.02 126.89-18.12L126.89-18.12Q128.01-19.29 129.94-20.34 131.87-21.39 133.63-21.39ZM166.73-8.59L166.73-8.59Q166.73-11.72 164.63-13.94 162.53-16.16 158.04-16.16L158.04-16.16Q156.97-16.16 154.53-15.97L154.53-15.97Q154.33-15.38 154.33-14.36L154.33-14.36 154.33-7.23Q154.33-3.52 155.11-2.88L155.11-2.88Q155.84-2.2 157.75-2.2L157.75-2.2Q158.97-2.2 160.17-2.39 161.36-2.59 163.02-3.15 164.68-3.71 165.71-5.1 166.73-6.49 166.73-8.59ZM150.08-6.98L150.08-6.98 150.08-25.44Q150.08-28.32 149.74-29.64L149.74-29.64Q149.59-30.03 148.3-30.37 147.01-30.71 146.37-30.71L146.37-30.71Q146.18-30.71 146.18-31.3L146.18-31.3Q146.18-31.93 146.37-32.13L146.37-32.13Q148.91-32.03 152.18-32.03L152.18-32.03Q154.67-32.03 156.26-32.06 157.85-32.08 159.07-32.08L159.07-32.08Q160.34-32.08 161.65-31.86 162.97-31.64 164.36-31.05 165.76-30.47 166.83-29.59 167.9-28.71 168.59-27.27 169.27-25.83 169.27-24.07 169.27-22.31 168.15-20.8 167.03-19.29 166.07-18.7 165.12-18.12 164.44-17.87L164.44-17.87Q164.05-17.72 164.19-17.58L164.19-17.58Q166.1-17.24 168.74-14.82 171.37-12.4 171.37-9.13L171.37-9.13Q171.37-4.93 167.98-2.47 164.58 0 158.97 0L158.97 0 152.28 0 146.37 0.15Q146.23 0 146.23-0.63 146.23-1.27 146.37-1.27L146.37-1.27Q147.01-1.27 148.25-1.61 149.5-1.95 149.74-2.39L149.74-2.39Q150.08-2.98 150.08-6.98ZM160.29-18.36L160.29-18.36Q162.29-18.55 163.63-19.75 164.98-20.95 164.98-22.95L164.98-22.95Q164.98-26.32 163.29-28.2 161.61-30.08 158.29-30.08L158.29-30.08Q156.04-30.08 154.82-29.74L154.82-29.74Q154.53-29.69 154.53-29.3L154.53-29.3 154.33-24.37 154.33-18.55Q154.33-18.21 157.55-18.21L157.55-18.21Q159.12-18.21 160.29-18.36ZM185.19-19.43L185.19-19.43Q182.6-19.43 180.96-17.07 179.33-14.7 179.33-11.28L179.33-11.28Q179.33-7.28 181.4-4.42 183.48-1.56 186.26-1.56L186.26-1.56Q188.85-1.56 190.51-4 192.17-6.45 192.17-9.86L192.17-9.86Q192.17-13.82 190.07-16.63 187.97-19.43 185.19-19.43ZM185.72-21.34L185.72-21.34Q190.12-21.34 193.24-18.16 196.37-14.99 196.37-10.55L196.37-10.55Q196.37-6.05 193.32-2.86 190.27 0.34 185.82 0.34 181.38 0.34 178.25-2.86 175.13-6.05 175.13-10.55L175.13-10.55Q175.13-15.09 178.16-18.21 181.18-21.34 185.72-21.34ZM210.09-19.43L210.09-19.43Q207.5-19.43 205.86-17.07 204.23-14.7 204.23-11.28L204.23-11.28Q204.23-7.28 206.3-4.42 208.38-1.56 211.16-1.56L211.16-1.56Q213.75-1.56 215.41-4 217.07-6.45 217.07-9.86L217.07-9.86Q217.07-13.82 214.97-16.63 212.87-19.43 210.09-19.43ZM210.62-21.34L210.62-21.34Q215.02-21.34 218.14-18.16 221.27-14.99 221.27-10.55L221.27-10.55Q221.27-6.05 218.22-2.86 215.17 0.34 210.72 0.34 206.28 0.34 203.15-2.86 200.03-6.05 200.03-10.55L200.03-10.55Q200.03-15.09 203.06-18.21 206.08-21.34 210.62-21.34ZM242.02-17.97L242.02-17.97Q241.19-17.48 238.84-15.65 236.5-13.82 234.79-12.06L234.79-12.06Q236.21-10.55 238.26-8.23 240.31-5.91 241.63-4.47 242.95-3.03 243.43-2.59L243.43-2.59Q244.26-1.9 245.53-1.54 246.8-1.17 247.34-1.17L247.34-1.17Q247.54-1.17 247.54-0.39L247.54-0.39Q247.54 0.05 247.49 0.15L247.49 0.15Q242.6-0.1 242.17-0.1L242.17-0.1Q242.07-0.1 237.09 0.15L237.09 0.15Q236.89-0.05 236.89-0.61 236.89-1.17 237.09-1.17L237.09-1.17Q237.58-1.17 238.21-1.37 238.84-1.56 238.84-1.81L238.84-1.81Q238.84-1.9 238.8-1.95L238.8-1.95 231.67-9.67 231.08-9.52 231.08-6.59Q231.18-3.37 231.47-2.25L231.47-2.25Q231.57-1.9 232.74-1.59 233.91-1.27 234.4-1.27L234.4-1.27Q234.55-1.27 234.6-0.68 234.65-0.1 234.55 0.15L234.55 0.15Q229.67-0.1 229.32-0.1L229.32-0.1Q229.03-0.1 224 0.15L224 0.15Q223.81-0.05 223.81-0.66 223.81-1.27 224-1.27L224-1.27Q224.59-1.27 225.73-1.59 226.88-1.9 226.98-2.25L226.98-2.25Q227.32-3.66 227.32-5.66L227.32-5.66 227.32-26.81Q227.32-28.47 227.03-29.93L227.03-29.93Q226.78-30.71 224.54-30.71L224.54-30.71 224.1-30.71Q223.81-30.71 223.81-31.25L223.81-31.25Q223.81-32.03 224.1-32.03L224.1-32.03Q225.56-32.18 226.81-32.42 228.05-32.67 228.76-32.91 229.47-33.15 229.96-33.37 230.45-33.59 230.64-33.74L230.64-33.74 230.89-33.89 230.98-33.89Q231.18-33.89 231.37-33.62 231.57-33.35 231.62-33.11L231.62-33.11Q231.08-31.54 231.08-28.86L231.08-28.86 231.08-11.77Q232.11-12.01 232.3-12.21L232.3-12.21Q233.38-13.13 234.55-14.11 235.72-15.09 236.31-15.58 236.89-16.06 237.43-16.55 237.97-17.04 238.16-17.33 238.36-17.63 238.36-17.92L238.36-17.92Q238.36-18.51 237.28-18.6 236.21-18.7 236.16-18.8L236.16-18.8Q235.82-19.78 236.21-19.92L236.21-19.92 240.07-19.92Q240.8-19.92 241.6-19.97 242.41-20.02 243.51-20.07 244.61-20.12 245.44-20.17L245.44-20.17Q245.63-20.07 245.66-19.73 245.68-19.38 245.58-19.09 245.49-18.8 245.39-18.8L245.39-18.8Q244.75-18.8 243.58-18.51 242.41-18.21 242.02-17.97ZM250.32-23.93L250.32-23.93Q250.32-27.69 253.2-30.1 256.08-32.52 259.89-32.52L259.89-32.52Q260.96-32.52 261.91-32.4 262.87-32.28 263.48-32.13 264.09-31.98 265.23-31.67 266.38-31.35 267.26-31.15L267.26-31.15Q267.85-28.56 267.85-24.17L267.85-24.17Q267.85-23.83 267.36-23.83L267.36-23.83Q266.19-23.83 266.09-24.32L266.09-24.32Q265.84-26.46 264.01-28.49 262.18-30.52 259.55-30.52L259.55-30.52Q256.62-30.52 255.42-29.05 254.22-27.59 254.22-25.44L254.22-25.44Q254.22-24.51 254.56-23.66 254.91-22.8 255.25-22.24 255.59-21.68 256.49-20.95 257.4-20.21 257.81-19.92 258.23-19.63 259.47-18.85 260.72-18.07 261.06-17.87L261.06-17.87Q261.3-17.72 262.77-16.82 264.23-15.92 264.77-15.55 265.31-15.19 266.45-14.23 267.6-13.28 268.11-12.55 268.63-11.82 269.09-10.72 269.56-9.62 269.56-8.45L269.56-8.45Q269.56-4.54 266.5-2.03 263.45 0.49 259.35 0.49L259.35 0.49Q258.18 0.49 256.86 0.32 255.54 0.15 254.66-0.02 253.78-0.2 252.44-0.51 251.1-0.83 250.56-0.93L250.56-0.93Q249.34-6.93 249.34-8.69L249.34-8.69Q249.34-8.98 250.12-8.98L250.12-8.98Q251-8.98 251.34-8.54L251.34-8.54Q253-1.51 259.45-1.51L259.45-1.51Q261.89-1.51 263.6-2.98 265.31-4.44 265.31-7.13L265.31-7.13Q265.31-8.11 265.01-8.94 264.72-9.77 264.4-10.3 264.09-10.84 263.28-11.45 262.48-12.06 262.04-12.35 261.6-12.65 260.42-13.28 259.25-13.92 258.81-14.16L258.81-14.16Q257.4-14.99 256.84-15.33 256.27-15.67 254.98-16.53 253.69-17.38 253.1-18.04 252.51-18.7 251.73-19.65 250.95-20.61 250.63-21.68 250.32-22.75 250.32-23.93ZM275.22-5.86L275.22-18.26 272.38-18.26Q272.14-18.26 272.14-19.29L272.14-19.29Q272.14-19.58 272.19-19.63L272.19-19.63Q273.61-20.26 275.27-22.22L275.27-22.22Q275.8-22.85 276.32-23.66 276.83-24.46 277.17-25.05 277.51-25.63 277.51-25.68L277.51-25.68Q278.98-25.68 278.98-25.44L278.98-25.44 278.98-20.61Q280.25-20.61 282.83-20.58 285.42-20.56 285.57-20.56L285.57-20.56Q285.96-20.56 285.96-20.12L285.96-20.12Q285.96-19.24 285.47-18.26L285.47-18.26 278.98-18.26 278.98-6.3Q278.98-4.35 279.98-3.17 280.98-2 282.59-2L282.59-2Q284.05-2 285.62-2.93L285.62-2.93Q285.76-3.03 286.06-2.51 286.35-2 286.3-1.95L286.3-1.95Q285.57-1.17 284.05-0.42 282.54 0.34 280.93 0.34L280.93 0.34Q278.49 0.34 276.85-1.27 275.22-2.88 275.22-5.86L275.22-5.86ZM298.51-19.43L298.51-19.43Q295.92-19.43 294.28-17.07 292.65-14.7 292.65-11.28L292.65-11.28Q292.65-7.28 294.72-4.42 296.8-1.56 299.58-1.56L299.58-1.56Q302.17-1.56 303.83-4 305.49-6.45 305.49-9.86L305.49-9.86Q305.49-13.82 303.39-16.63 301.29-19.43 298.51-19.43ZM299.04-21.34L299.04-21.34Q303.44-21.34 306.56-18.16 309.69-14.99 309.69-10.55L309.69-10.55Q309.69-6.05 306.64-2.86 303.58 0.34 299.14 0.34 294.7 0.34 291.57-2.86 288.45-6.05 288.45-10.55L288.45-10.55Q288.45-15.09 291.47-18.21 294.5-21.34 299.04-21.34ZM325.85-21.34L325.85-21.34Q328.73-21.34 329.66-19.92L329.66-19.92Q329.66-18.21 329.12-17.43 328.58-16.65 327.8-16.65L327.8-16.65Q326.92-16.65 326.19-17.48 325.46-18.31 324.19-18.31L324.19-18.31Q322.67-18.31 321.55-16.89 320.43-15.48 320.43-13.92L320.43-13.92 320.43-6.59Q320.43-3.76 320.82-2.25L320.82-2.25Q320.91-1.9 322.11-1.59 323.31-1.27 323.8-1.27L323.8-1.27Q323.94-1.27 323.99-0.68 324.04-0.1 323.94 0.15L323.94 0.15Q319.06-0.1 318.67-0.1L318.67-0.1Q318.38-0.1 313.35 0.15L313.35 0.15Q313.15-0.05 313.15-0.66 313.15-1.27 313.35-1.27L313.35-1.27Q313.93-1.27 315.08-1.59 316.23-1.9 316.32-2.25L316.32-2.25Q316.67-3.66 316.67-5.66L316.67-5.66 316.67-14.89Q316.67-16.8 315.98-17.53L315.98-17.53Q315.49-18.12 314.79-18.33 314.08-18.55 313.61-18.55 313.15-18.55 313.15-18.65L313.15-18.65Q313.15-19.82 313.44-19.87L313.44-19.87Q318.62-20.65 320.18-21.14L320.18-21.14Q320.23-21.14 320.33-21.17 320.43-21.19 320.43-21.19L320.43-21.19Q320.62-21.19 320.67-20.78 320.72-20.36 320.67-20.17L320.67-20.17 320.38-17.72Q321.26-19.04 322.79-20.19 324.33-21.34 325.85-21.34ZM341.08-19.48L341.08-19.48Q338.54-19.48 337.2-17.31 335.85-15.14 335.85-13.72L335.85-13.72Q335.85-13.38 336.15-13.38L336.15-13.38 345.67-13.38Q345.91-13.38 345.91-13.87L345.91-13.87Q345.91-15.43 344.59-17.46 343.28-19.48 341.08-19.48ZM341.57-21.29L341.57-21.29Q343.81-21.29 345.52-20.43 347.23-19.58 348.13-18.24 349.04-16.89 349.45-15.5 349.87-14.11 349.87-12.74L349.87-12.74Q349.87-11.77 349.57-11.55 349.28-11.33 348.45-11.33L348.45-11.33 336.15-11.33Q335.76-11.33 335.76-11.08L335.76-11.08Q335.76-8.01 337.61-5.42 339.47-2.83 342.98-2.83L342.98-2.83Q344.01-2.83 344.94-3.03 345.86-3.22 346.52-3.49 347.18-3.76 347.65-4.03 348.11-4.3 348.45-4.54L348.45-4.54 348.79-4.79Q349.09-4.79 349.09-4.15L349.09-4.15Q349.09-3.76 348.79-3.27L348.79-3.27Q347.82-1.9 345.91-0.81 344.01 0.29 341.76 0.29L341.76 0.29Q337.71 0.29 334.8-2.76 331.9-5.81 331.9-10.21L331.9-10.21Q331.9-15.33 334.66-18.31 337.42-21.29 341.57-21.29Z" opacity="1" transform="matrix(1,0,0,1,0,0)" fill="#ff3368" class="undefined-text-0" data-fill-palette-color="primary" id="text-0"></path></svg></g></svg></g></svg></g></svg></g></svg></g></svg></g></svg></g></svg></g></svg><rect width="395.52" height="247.2" fill="none" stroke="none" visibility="hidden"></rect></g></svg></g></svg>